<?xml version="1.0" standalone="no"?>
<!DOCTYPE svg PUBLIC "-//W3C//DTD SVG 20010904//EN"
 "http://www.w3.org/TR/2001/REC-SVG-20010904/DTD/svg10.dtd">
<svg version="1.0" xmlns="http://www.w3.org/2000/svg"
 width="667.000000pt" height="375.000000pt" viewBox="0 0 667.000000 375.000000"
 preserveAspectRatio="xMidYMid meet">

<g transform="translate(0.000000,375.000000) scale(0.100000,-0.100000)"
fill="#000000" stroke="none">
<path d="M3317 2942 c-42 -43 -47 -52 -47 -92 0 -50 46 -2 -413 -442 -172
-166 -175 -168 -219 -168 -39 0 -49 -5 -93 -51 l-50 -50 434 -431 433 -430 60
58 c53 53 58 62 53 90 -5 30 6 43 286 315 278 272 293 284 335 290 37 4 54 14
95 55 l51 51 -431 424 c-238 233 -435 425 -439 427 -4 1 -29 -19 -55 -46z
m302 -576 l-152 -148 -108 108 -109 108 152 148 152 149 109 -108 108 -108
-152 -149z m423 -113 l97 -96 -26 -34 c-22 -29 -31 -33 -72 -33 l-46 0 -290
-289 c-288 -288 -290 -290 -295 -337 -4 -40 -10 -51 -32 -64 l-28 -15 -287
287 -288 288 150 150 150 150 107 -107 108 -108 -65 -65 c-36 -36 -65 -70 -65
-76 0 -15 147 -154 162 -154 7 0 148 135 313 300 165 165 302 300 305 300 2 0
48 -43 102 -97z"/>
<path d="M2477 1133 c-4 -3 -3 -11 2 -17 12 -14 -34 -349 -49 -354 -5 -2 -10
-10 -10 -18 0 -10 15 -14 61 -14 56 0 60 1 54 20 -4 11 -3 50 0 85 l7 65 58 0
58 0 -5 -47 c-3 -27 -11 -61 -19 -77 -8 -16 -14 -33 -14 -38 0 -4 27 -8 59 -8
l60 0 -5 33 c-7 39 33 328 46 341 24 24 9 36 -43 36 -60 0 -70 -5 -59 -29 5
-9 4 -44 -1 -78 l-9 -63 -55 0 -56 0 7 63 c4 34 14 69 22 78 8 9 11 19 7 22
-8 9 -108 9 -116 0z"/>
<path d="M2823 1119 c8 -31 -31 -319 -47 -351 -8 -14 -12 -29 -8 -32 3 -3 60
-6 128 -6 136 0 134 -1 134 78 0 35 -10 41 -30 17 -8 -10 -31 -15 -66 -15 -49
0 -54 2 -54 23 0 57 34 264 47 278 19 23 7 29 -55 29 -51 0 -54 -1 -49 -21z"/>
<path d="M3294 1130 c-28 -11 -61 -54 -69 -89 -9 -42 10 -78 61 -114 83 -57
87 -61 80 -85 -6 -18 -15 -22 -47 -22 -46 0 -79 14 -79 35 0 7 -4 16 -9 19
-12 8 -64 -81 -56 -94 14 -22 86 -50 130 -50 85 0 138 50 138 132 0 44 -10 58
-80 110 -58 43 -66 64 -28 78 28 11 54 4 71 -18 9 -13 16 -9 38 24 14 21 26
44 26 50 0 28 -125 45 -176 24z"/>
<path d="M3504 1113 c5 -27 -34 -313 -49 -360 -7 -22 -5 -23 45 -23 47 0 52 2
47 19 -9 36 18 161 40 183 26 25 53 18 53 -14 0 -26 -15 -119 -25 -160 -7 -28
-7 -28 43 -28 l50 0 -1 38 c0 20 3 78 7 128 10 110 2 125 -74 126 -3 1 -18 -2
-33 -6 l-29 -7 7 66 7 65 -47 0 c-46 0 -46 -1 -41 -27z"/>
<path d="M3816 999 c-41 -32 -57 -73 -59 -150 -2 -66 0 -72 26 -95 22 -18 40
-24 78 -24 42 0 55 5 85 33 29 27 37 42 46 97 13 75 7 111 -24 140 -31 28
-115 28 -152 -1z m102 -108 c4 -52 -19 -83 -57 -79 -22 3 -26 9 -29 41 -4 52
20 89 56 85 24 -3 27 -8 30 -47z"/>
<path d="M4046 996 c4 -19 -19 -218 -41 -348 -4 -27 -3 -28 45 -28 l49 0 -6
34 c-3 19 -3 46 1 59 5 22 9 23 58 19 44 -3 58 0 81 18 43 34 60 77 61 152 1
57 -2 70 -23 92 -19 20 -34 26 -68 26 -25 0 -53 -5 -64 -10 -13 -7 -19 -7 -19
0 0 5 -18 10 -40 10 -37 0 -40 -2 -34 -24z m169 -66 c18 -57 -20 -130 -67
-130 -38 0 -45 74 -12 128 19 29 70 31 79 2z"/>
</g>
</svg>
