<?xml version="1.0" standalone="no"?>
<!DOCTYPE svg PUBLIC "-//W3C//DTD SVG 20010904//EN"
 "http://www.w3.org/TR/2001/REC-SVG-20010904/DTD/svg10.dtd">
<svg version="1.0" xmlns="http://www.w3.org/2000/svg"
 width="667.000000pt" height="375.000000pt" viewBox="0 0 667.000000 375.000000"
 preserveAspectRatio="xMidYMid meet">

<g transform="translate(0.000000,375.000000) scale(0.100000,-0.100000)"
fill="#000000" stroke="none">
<path d="M2863 2985 c-18 -8 -42 -29 -53 -47 -20 -32 -20 -45 -18 -770 l3
-737 30 -31 c43 -45 94 -56 149 -31 24 10 50 30 58 43 10 17 14 100 18 328 6
338 6 339 73 380 61 38 144 14 179 -51 16 -30 18 -60 18 -249 0 -318 -8 -310
322 -310 245 0 257 3 295 59 27 40 29 71 7 116 -29 62 -52 70 -216 73 l-148 4
0 178 c0 206 -2 202 94 208 60 4 63 3 139 -48 93 -62 137 -68 192 -25 77 58
63 175 -27 221 -38 20 -77 17 -119 -9 -125 -76 -147 -87 -177 -87 -18 0 -48 7
-67 14 l-35 15 0 261 c0 287 -2 299 -60 334 -40 23 -111 21 -144 -5 -52 -41
-56 -61 -56 -283 0 -121 -4 -216 -11 -233 -37 -99 -163 -119 -226 -36 l-28 36
-5 313 c-5 294 -6 313 -25 334 -44 49 -102 61 -162 35z"/>
<path d="M3223 1151 c-32 -20 -48 -53 -41 -88 2 -10 25 -34 51 -53 49 -37 60
-65 28 -75 -22 -7 -71 10 -71 25 0 20 -20 9 -35 -20 -15 -30 -15 -30 17 -50
59 -36 134 -18 157 38 18 44 4 79 -45 113 -48 33 -53 44 -26 57 19 10 43 5 54
-11 3 -6 16 5 27 24 24 38 19 45 -45 54 -29 4 -47 1 -71 -14z"/>
<path d="M3674 1159 c-45 -13 -63 -39 -74 -105 -17 -103 -13 -140 16 -163 49
-38 131 -18 152 36 6 15 16 61 22 102 12 83 1 113 -46 131 -29 11 -28 11 -70
-1z m64 -101 c5 -55 -11 -101 -40 -117 -22 -13 -28 -13 -43 -1 -14 11 -16 24
-10 69 10 78 19 93 58 89 29 -3 32 -7 35 -40z"/>
<path d="M2654 1151 c8 -13 -24 -244 -36 -258 -13 -17 13 -27 47 -19 19 5 25
13 25 35 0 16 3 43 6 60 6 28 10 31 46 31 l40 0 -7 -47 c-4 -27 -11 -53 -17
-60 -7 -9 -3 -14 15 -18 40 -10 62 -2 59 21 -4 33 27 236 39 250 9 12 3 14
-35 14 -31 0 -45 -4 -41 -11 4 -6 4 -30 0 -55 -6 -44 -6 -44 -47 -44 l-41 0 6
38 c3 20 8 45 12 55 6 14 1 17 -35 17 -22 0 -39 -4 -36 -9z"/>
<path d="M2896 1146 c7 -19 -25 -238 -38 -253 -14 -17 23 -25 107 -21 l69 3 7
35 c8 39 4 49 -13 32 -12 -12 -80 -17 -90 -7 -8 8 22 197 33 212 9 10 3 13
-34 13 -36 0 -45 -3 -41 -14z"/>
<path d="M3375 1150 c8 -13 -24 -241 -36 -256 -12 -14 -1 -24 27 -24 35 0 53
10 47 26 -3 8 -2 34 1 59 7 45 7 45 48 45 l41 0 -7 -46 c-3 -26 -11 -53 -16
-60 -14 -16 -3 -21 40 -20 28 1 34 5 32 19 -5 28 29 241 40 255 8 9 0 12 -36
12 -31 0 -45 -4 -41 -11 4 -6 4 -30 0 -55 -6 -44 -6 -44 -47 -44 l-41 0 7 42
c4 23 12 48 18 55 8 10 1 13 -36 13 -29 0 -45 -4 -41 -10z"/>
<path d="M3830 1123 c0 -46 -26 -218 -35 -232 -7 -13 39 -25 61 -17 8 3 12 11
9 16 -4 6 -4 24 0 39 5 25 12 31 48 36 61 11 97 51 97 109 0 64 -30 86 -116
86 l-64 0 0 -37z m104 -19 c23 -9 21 -61 -3 -74 -47 -24 -63 -3 -41 54 10 27
17 30 44 20z"/>
</g>
</svg>
